<svg width="173" height="40" viewBox="0 0 173 40" fill="none" xmlns="http://www.w3.org/2000/svg">
<path d="M34.1422 5.85781C30.3647 2.08031 25.3422 0 20 0C14.6578 0 9.63531 2.08031 5.85781 5.85781C2.08031 9.63531 0 14.6578 0 20C0 25.3422 2.08039 30.3646 5.85781 34.1422C9.63523 37.9198 14.6578 40 20 40C25.3422 40 30.3647 37.9197 34.1422 34.1422C37.9197 30.3647 40 25.3422 40 20C40 14.6578 37.9196 9.63539 34.1422 5.85781Z" fill="#33CC95"/>
<path d="M20.5714 8V33.1429" stroke="white" stroke-width="2" stroke-linecap="round" stroke-linejoin="round"/>
<path d="M26.2857 12.5714H17.7143C16.6534 12.5714 15.636 12.9929 14.8859 13.743C14.1357 14.4931 13.7143 15.5106 13.7143 16.5714C13.7143 17.6323 14.1357 18.6497 14.8859 19.3999C15.636 20.15 16.6534 20.5714 17.7143 20.5714H23.4286C24.4894 20.5714 25.5069 20.9929 26.257 21.743C27.0072 22.4932 27.4286 23.5106 27.4286 24.5714C27.4286 25.6323 27.0072 26.6497 26.257 27.3999C25.5069 28.15 24.4894 28.5714 23.4286 28.5714H13.7143" stroke="white" stroke-width="2" stroke-linecap="round" stroke-linejoin="round"/>
<path d="M53.6504 29V10.5156H60.125C62.3678 10.5156 64.069 10.9473 65.2285 11.8105C66.388 12.6654 66.9678 13.9222 66.9678 15.5811C66.9678 16.4867 66.735 17.2865 66.2695 17.9805C65.804 18.666 65.1566 19.1696 64.3271 19.4912C65.2751 19.7282 66.0199 20.2064 66.5615 20.9258C67.1117 21.6452 67.3867 22.5254 67.3867 23.5664C67.3867 25.3438 66.8197 26.6895 65.6855 27.6035C64.5514 28.5176 62.9349 28.9831 60.8359 29H53.6504ZM57.459 20.9512V25.9404H60.7217C61.6188 25.9404 62.3171 25.7288 62.8164 25.3057C63.3242 24.874 63.5781 24.2816 63.5781 23.5283C63.5781 21.8356 62.7021 20.9766 60.9502 20.9512H57.459ZM57.459 18.2598H60.2773C62.1986 18.2259 63.1592 17.46 63.1592 15.9619C63.1592 15.124 62.9137 14.5231 62.4229 14.1592C61.9404 13.7868 61.1745 13.6006 60.125 13.6006H57.459V18.2598ZM78.4946 29C78.3253 28.6699 78.2026 28.2594 78.1264 27.7686C77.2378 28.7588 76.0825 29.2539 74.6606 29.2539C73.3149 29.2539 72.1977 28.8646 71.3091 28.0859C70.4289 27.3073 69.9888 26.3255 69.9888 25.1406C69.9888 23.6849 70.5262 22.5677 71.6011 21.7891C72.6844 21.0104 74.2459 20.6169 76.2856 20.6084H77.9741V19.8213C77.9741 19.1865 77.8091 18.6787 77.479 18.2979C77.1574 17.917 76.6453 17.7266 75.9429 17.7266C75.325 17.7266 74.8384 17.8747 74.4829 18.1709C74.1359 18.4671 73.9624 18.8734 73.9624 19.3896H70.2934C70.2934 18.5941 70.5389 17.8577 71.0298 17.1807C71.5207 16.5036 72.2147 15.9746 73.1118 15.5938C74.0089 15.2044 75.0161 15.0098 76.1333 15.0098C77.826 15.0098 79.1675 15.4372 80.1577 16.292C81.1564 17.1383 81.6557 18.3317 81.6557 19.8721V25.8262C81.6642 27.1296 81.8462 28.1156 82.2016 28.7842V29H78.4946ZM75.4604 26.4482C76.0021 26.4482 76.5014 26.3298 76.9585 26.0928C77.4155 25.8473 77.754 25.5215 77.9741 25.1152V22.7539H76.603C74.7664 22.7539 73.7889 23.3887 73.6704 24.6582L73.6577 24.874C73.6577 25.3311 73.8185 25.7077 74.1401 26.0039C74.4617 26.3001 74.9018 26.4482 75.4604 26.4482ZM84.4609 22.0303C84.4609 19.9229 84.9602 18.2259 85.9589 16.9395C86.9661 15.653 88.3203 15.0098 90.0214 15.0098C91.528 15.0098 92.7002 15.526 93.538 16.5586L93.6904 15.2637H97.0166V28.543C97.0166 29.7448 96.7415 30.79 96.1914 31.6787C95.6497 32.5674 94.8838 33.2445 93.8935 33.71C92.9033 34.1755 91.7438 34.4082 90.415 34.4082C89.4078 34.4082 88.4261 34.2051 87.4697 33.7988C86.5133 33.401 85.7897 32.8848 85.2988 32.25L86.9238 30.0156C87.8379 31.0397 88.9466 31.5518 90.25 31.5518C91.2233 31.5518 91.9808 31.2894 92.5224 30.7646C93.0641 30.2484 93.3349 29.512 93.3349 28.5557V27.8193C92.4886 28.7757 91.3756 29.2539 89.9961 29.2539C88.3457 29.2539 87.0084 28.6107 85.9843 27.3242C84.9687 26.0293 84.4609 24.3154 84.4609 22.1826V22.0303ZM88.1298 22.2969C88.1298 23.541 88.3795 24.5186 88.8789 25.2295C89.3782 25.932 90.0638 26.2832 90.9355 26.2832C92.0527 26.2832 92.8525 25.8643 93.3349 25.0264V19.25C92.844 18.4121 92.0527 17.9932 90.9609 17.9932C90.0807 17.9932 89.3867 18.3529 88.8789 19.0723C88.3795 19.7917 88.1298 20.8665 88.1298 22.2969ZM108.328 29C108.158 28.6699 108.036 28.2594 107.959 27.7686C107.071 28.7588 105.915 29.2539 104.494 29.2539C103.148 29.2539 102.031 28.8646 101.142 28.0859C100.262 27.3073 99.8217 26.3255 99.8217 25.1406C99.8217 23.6849 100.359 22.5677 101.434 21.7891C102.517 21.0104 104.079 20.6169 106.119 20.6084H107.807V19.8213C107.807 19.1865 107.642 18.6787 107.312 18.2979C106.99 17.917 106.478 17.7266 105.776 17.7266C105.158 17.7266 104.671 17.8747 104.316 18.1709C103.969 18.4671 103.795 18.8734 103.795 19.3896H100.126C100.126 18.5941 100.372 17.8577 100.863 17.1807C101.354 16.5036 102.048 15.9746 102.945 15.5938C103.842 15.2044 104.849 15.0098 105.966 15.0098C107.659 15.0098 109 15.4372 109.991 16.292C110.989 17.1383 111.489 18.3317 111.489 19.8721V25.8262C111.497 27.1296 111.679 28.1156 112.035 28.7842V29H108.328ZM105.293 26.4482C105.835 26.4482 106.334 26.3298 106.791 26.0928C107.248 25.8473 107.587 25.5215 107.807 25.1152V22.7539H106.436C104.599 22.7539 103.622 23.3887 103.503 24.6582L103.491 24.874C103.491 25.3311 103.651 25.7077 103.973 26.0039C104.295 26.3001 104.735 26.4482 105.293 26.4482ZM120.54 26.2959C121.217 26.2959 121.767 26.1097 122.19 25.7373C122.614 25.3649 122.834 24.8698 122.851 24.252H126.291C126.282 25.1829 126.029 26.0378 125.529 26.8164C125.03 27.5866 124.344 28.1875 123.473 28.6191C122.609 29.0423 121.653 29.2539 120.603 29.2539C118.64 29.2539 117.091 28.6318 115.957 27.3877C114.823 26.1351 114.256 24.4085 114.256 22.208V21.9668C114.256 19.8509 114.819 18.1624 115.944 16.9014C117.07 15.6403 118.615 15.0098 120.578 15.0098C122.296 15.0098 123.671 15.5007 124.704 16.4824C125.745 17.4557 126.274 18.7549 126.291 20.3799H122.851C122.834 19.6689 122.614 19.0934 122.19 18.6533C121.767 18.2048 121.209 17.9805 120.515 17.9805C119.66 17.9805 119.012 18.2936 118.572 18.9199C118.141 19.5378 117.925 20.5449 117.925 21.9414V22.3223C117.925 23.7357 118.141 24.7513 118.572 25.3691C119.004 25.987 119.66 26.2959 120.54 26.2959ZM135.228 29.2539C133.214 29.2539 131.572 28.6361 130.302 27.4004C129.041 26.1647 128.411 24.5186 128.411 22.4619V22.1064C128.411 20.7269 128.677 19.4954 129.21 18.4121C129.744 17.3203 130.497 16.4824 131.47 15.8984C132.452 15.306 133.569 15.0098 134.822 15.0098C136.701 15.0098 138.177 15.6022 139.252 16.7871C140.336 17.972 140.877 19.652 140.877 21.8271V23.3252H132.13C132.249 24.2223 132.604 24.9417 133.197 25.4834C133.798 26.0251 134.555 26.2959 135.469 26.2959C136.883 26.2959 137.987 25.7839 138.783 24.7598L140.585 26.7783C140.035 27.557 139.29 28.1663 138.351 28.6064C137.412 29.0381 136.371 29.2539 135.228 29.2539ZM134.809 17.9805C134.081 17.9805 133.489 18.2259 133.032 18.7168C132.583 19.2077 132.295 19.9102 132.168 20.8242H137.272V20.5322C137.255 19.7197 137.035 19.0934 136.612 18.6533C136.189 18.2048 135.588 17.9805 134.809 17.9805ZM142.921 22.0049C142.921 20.6423 143.183 19.4277 143.708 18.3613C144.233 17.2949 144.986 16.4697 145.968 15.8857C146.958 15.3018 148.105 15.0098 149.408 15.0098C151.262 15.0098 152.772 15.5768 153.94 16.7109C155.117 17.8451 155.773 19.3854 155.908 21.332L155.933 22.2715C155.933 24.3789 155.345 26.0716 154.169 27.3496C152.992 28.6191 151.414 29.2539 149.433 29.2539C147.453 29.2539 145.87 28.6191 144.685 27.3496C143.509 26.0801 142.921 24.3535 142.921 22.1699V22.0049ZM146.59 22.2715C146.59 23.5749 146.835 24.5736 147.326 25.2676C147.817 25.9531 148.519 26.2959 149.433 26.2959C150.322 26.2959 151.016 25.9574 151.516 25.2803C152.015 24.5947 152.265 23.5029 152.265 22.0049C152.265 20.7269 152.015 19.7367 151.516 19.0342C151.016 18.3317 150.314 17.9805 149.408 17.9805C148.511 17.9805 147.817 18.3317 147.326 19.0342C146.835 19.7282 146.59 20.8073 146.59 22.2715ZM166.153 25.2041C166.153 24.7555 165.928 24.4043 165.48 24.1504C165.04 23.888 164.329 23.6553 163.347 23.4521C160.08 22.7666 158.447 21.3786 158.447 19.2881C158.447 18.0693 158.95 17.0537 159.957 16.2412C160.973 15.4202 162.298 15.0098 163.931 15.0098C165.675 15.0098 167.067 15.4202 168.108 16.2412C169.157 17.0622 169.682 18.1286 169.682 19.4404H166.013C166.013 18.9157 165.844 18.484 165.505 18.1455C165.167 17.7985 164.638 17.625 163.918 17.625C163.3 17.625 162.822 17.7646 162.484 18.0439C162.145 18.3232 161.976 18.6787 161.976 19.1104C161.976 19.5166 162.166 19.8467 162.547 20.1006C162.937 20.346 163.588 20.5618 164.502 20.748C165.416 20.9258 166.187 21.1289 166.813 21.3574C168.751 22.0684 169.72 23.2998 169.72 25.0518C169.72 26.3044 169.183 27.32 168.108 28.0986C167.033 28.8688 165.645 29.2539 163.944 29.2539C162.793 29.2539 161.769 29.0508 160.871 28.6445C159.983 28.2298 159.285 27.667 158.777 26.9561C158.269 26.2367 158.015 25.4622 158.015 24.6328H161.494C161.527 25.2845 161.769 25.7839 162.217 26.1309C162.666 26.4779 163.267 26.6514 164.02 26.6514C164.722 26.6514 165.251 26.5202 165.607 26.2578C165.971 25.987 166.153 25.6357 166.153 25.2041Z" fill="white"/>
</svg>
